<svg xmlns="http://www.w3.org/2000/svg" width="88.652" height="74.043" viewBox="0 0 88.652 74.043">
  <path id="路径_2066" d="M84,3.652A3.663,3.663,0,0,0,80.347,0h-7.3a3.663,3.663,0,0,0-3.652,3.652V62.087H84ZM80.347,58.434h-7.3V3.652h7.3ZM14.609,69.391H87.652v3.652H14.609Zm3.652-29.217a3.663,3.663,0,0,0-3.652-3.652H7.3a3.663,3.663,0,0,0-3.652,3.652V62.087H18.261ZM14.609,58.434H7.3V40.174h7.3ZM40.174,18.261a3.663,3.663,0,0,0-3.652-3.652h-7.3a3.663,3.663,0,0,0-3.652,3.652V62.087H40.174ZM36.521,58.434h-7.3V18.261h7.3ZM0,69.391H7.3v3.652H0ZM62.087,25.565a3.663,3.663,0,0,0-3.652-3.652h-7.3a3.663,3.663,0,0,0-3.652,3.652V62.087H62.087ZM58.434,58.434h-7.3V25.565h7.3Z" transform="translate(0.5 0.5)"/>
</svg>
