<svg xmlns="http://www.w3.org/2000/svg" width="76.861" height="76.039" viewBox="0 0 76.861 76.039">
  <g id="组_2786" transform="translate(-69.35 -69.45)">
    <path id="路径_1863" d="M329.618,270.064c-.014-.043-.029-.1-.043-.159v-.014a2.211,2.211,0,0,0-.1-.332l-.014-.015c-.015-.043-.043-.086-.058-.13l-.015-.043c-.014-.043-.043-.072-.058-.115l-.014-.029a1.3,1.3,0,0,0-.087-.144l-.014-.029a.815.815,0,0,1-.087-.115l-.029-.029a.625.625,0,0,1-.087-.1l-.014-.029c-.072-.087-.159-.173-.245-.26-.043-.029-.072-.072-.115-.1l-.014-.014a3.8,3.8,0,0,0-.418-.3l-.015-.014c-.043-.029-.1-.043-.144-.072h-.014a1.466,1.466,0,0,0-.317-.13l-.029-.014-.13-.043a.921.921,0,0,0-.1-.029l-39.6-9.128a3.289,3.289,0,0,0-.635-.072,2.757,2.757,0,0,0-1.168.26l-28.581,13.022-.086.043a.316.316,0,0,1-.072.043l-.058.029a.3.3,0,0,1-.087.058l-.043.029c-.043.029-.072.043-.115.072l-.014.014a2.846,2.846,0,0,0-.562.534l-.014.014a.792.792,0,0,0-.087.115l-.014.014a.5.5,0,0,1-.072.115l-.014.014a2.3,2.3,0,0,0-.216.418l-.014.029a.7.7,0,0,0-.043.1l-.014.043c-.014.029-.014.072-.029.1l-.014.043c-.014.029-.014.072-.029.115v.029a3.026,3.026,0,0,0-.072.62v42.194a2.8,2.8,0,0,0,1.99,2.7l39.281,12.128a.145.145,0,0,0,.043.014c.058.014.1.029.159.043.014,0,.029.015.058.015s.086.014.13.029a.157.157,0,0,0,.072.014c.058,0,.1.014.159.014h.043a.947.947,0,0,0,.2.015c.072,0,.144-.015.216-.015h.029c.058-.014.13-.014.188-.029h.043l.173-.043.043-.014c.058-.014.1-.029.159-.043l.058-.014c.043-.014.1-.043.144-.058.015-.014.029-.014.058-.029s.086-.043.13-.058a.314.314,0,0,1,.072-.043.43.43,0,0,0,.115-.058l.014-.014c.014-.014.043-.029.058-.043l.029-.014,28.9-18.8a2.866,2.866,0,0,0,1.3-2.394V270.381A1.383,1.383,0,0,0,329.618,270.064ZM295.11,324.977l-33.628-10.383V278.082l33.628,7.989Zm2.495-44.126-30.312-7.181,20.232-9.229,30.586,7.052Zm26.389,27.615L300.72,323.607V285.638L323.994,275Z" transform="translate(-184.95 -187.65)"/>
  </g>
</svg>
