<svg xmlns="http://www.w3.org/2000/svg" width="16.2" height="17.228" viewBox="0 0 16.2 17.228">
  <g id="模型结果" transform="translate(-133.8 -83.064)">
    <path id="路径_1866" d="M149.557,87.2l-7.313-3.94a.732.732,0,0,0-.687,0l-7.313,3.94a.636.636,0,0,0-.343.554v7.881a.344.344,0,0,0,.687,0V87.752l7.312-3.94,7.314,3.94v7.881l-7.314,3.94a.309.309,0,0,0-.126.438.357.357,0,0,0,.469.117l7.314-3.941a.636.636,0,0,0,.343-.555V87.752A.636.636,0,0,0,149.557,87.2Z" transform="translate(0 0)"/>
    <path id="路径_1867" d="M218.358,342.184v-6.327l6.05-3.232a.307.307,0,0,0,.127-.438.363.363,0,0,0-.474-.117l-6.05,3.233-5.917-3.163a.363.363,0,0,0-.474.117.307.307,0,0,0,.127.438l5.919,3.163v6.327a.348.348,0,0,0,.694,0Z" transform="translate(-76.115 -243.98)"/>
  </g>
</svg>
